# xmcd
#
# Track frame offsets:
#	150
#	18570
#	37730
#	50405
#	83266
#	97490
#	123263
#	140125
#	158450
#	185215
#	212932
#	228736
#	247382
#	272217
#	296095
#	314730
#	339053
#
# Disc length: 4783 seconds
#
# Revision: 0
# Processed by: cddbd v1.5.2PL0 Copyright (c) Steve Scherf et al.
# Submitted via: EasyCDDAExtractor 8.2.3.1
#
DISCID=0512ad11
DTITLE=Various Artist - Akella Presents - Rockin' Blues  vol.27  CD2
DYEAR=2011
DGENRE=Blues
TTITLE0=TISHAMINGO - Bad News
TTITLE1=DUFFY BISHOP - Convince Me
TTITLE2=PAT McMANUS - Got the Right
TTITLE3=JOHN LYONS BAND - Lonely Fool
TTITLE4=SWAMPdaWAMP - Double Or Nuthin'
TTITLE5=BLUE ON BLACK - Yankee Dollar
TTITLE6=TIM BROOKS and The ALIEN  SHARECROPPERS - Down Along The Cove
TTITLE7=PAUL BLACK - Slippin' Away
TTITLE8=BRIAN STOLTZ - Fearless
TTITLE9=GEORGE THOROGOOD - Killer's Blues
TTITLE10=GLENN KAISER BAND - Got Everything
TTITLE11=L.A. BLUES ALLIANCE - Who's Been Talking
TTITLE12=JON AMOR - Lover Down
TTITLE13=IMPERIAL CROWNS - Kingsize Jones
TTITLE14=RICK FOWLER - Road To Nowhere
TTITLE15=JOHN CAMPBELLJOHN - That´s Just Fine
TTITLE16=MASON CASEY - Rainy Day In El Valle
EXTD=
EXTT0=
EXTT1=
EXTT2=
EXTT3=
EXTT4=
EXTT5=
EXTT6=
EXTT7=
EXTT8=
EXTT9=
EXTT10=
EXTT11=
EXTT12=
EXTT13=
EXTT14=
EXTT15=
EXTT16=
PLAYORDER=
